<svg width="25" height="24" viewBox="0 0 25 24" fill="none" xmlns="http://www.w3.org/2000/svg">
<path d="M11.0419 19.2669C11.5146 14.4339 11.5146 9.56619 11.0419 4.73311C10.9994 4.29839 10.7013 3.93232 10.2892 3.79855C8.6463 3.26523 6.85413 3.26523 5.21121 3.79855C4.79915 3.93232 4.501 4.29839 4.45849 4.73311C3.98584 9.56619 3.98584 14.4339 4.45849 19.2669C4.501 19.7017 4.79914 20.0677 5.21121 20.2015C6.85413 20.7348 8.6463 20.7348 10.2892 20.2015C10.7013 20.0677 10.9994 19.7017 11.0419 19.2669Z" fill="#FDFDFF"/>
<path d="M20.5419 19.2669C21.0146 14.4339 21.0146 9.56619 20.5419 4.73311C20.4994 4.29839 20.2013 3.93232 19.7892 3.79855C18.1463 3.26523 16.3541 3.26523 14.7112 3.79855C14.2991 3.93232 14.001 4.29839 13.9585 4.73311C13.4858 9.56619 13.4858 14.4339 13.9585 19.2669C14.001 19.7017 14.2991 20.0677 14.7112 20.2015C16.3541 20.7348 18.1463 20.7348 19.7892 20.2015C20.2013 20.0677 20.4994 19.7017 20.5419 19.2669Z" fill="#FDFDFF"/>
</svg>
