<svg width="15" height="14" viewBox="0 0 15 14" fill="none" xmlns="http://www.w3.org/2000/svg">
<path fill-rule="evenodd" clip-rule="evenodd" d="M12.3168 5.49942L13.6802 4.13598L13.6803 4.13596L13.6803 4.13591C13.9068 3.90946 14.02 3.79622 14.1021 3.68826C14.6458 2.97297 14.6458 1.98287 14.1021 1.26759C14.02 1.15962 13.9068 1.04639 13.6803 0.81993L13.6803 0.819879L13.6802 0.819865C13.4537 0.593366 13.3405 0.480117 13.2325 0.398039C12.5172 -0.1457 11.5271 -0.1457 10.8119 0.398039C10.7039 0.480115 10.5906 0.593362 10.3641 0.819853L10.3641 0.819864L8.98149 2.2025C9.77409 3.57576 10.9249 4.71765 12.3168 5.49942ZM7.5269 3.6571L2.1012 9.0828L2.10119 9.08281C1.67613 9.50787 1.4636 9.72039 1.32387 9.98149C1.18414 10.2426 1.12519 10.5373 1.0073 11.1268L0.562875 13.3489C0.496353 13.6815 0.463092 13.8478 0.5577 13.9424C0.652308 14.037 0.818613 14.0038 1.15122 13.9372L3.37335 13.4928C3.9628 13.3749 4.25753 13.316 4.51862 13.1762C4.77972 13.0365 4.99225 12.824 5.41731 12.3989L10.8584 6.9578C9.51766 6.11131 8.38141 4.98277 7.5269 3.6571Z" fill="#FDFDFF"/>
</svg>
