<svg width="40" height="40" viewBox="0 0 40 40" fill="none" xmlns="http://www.w3.org/2000/svg">
<path d="M11.6667 5H8.33333C6.49238 5 5 6.49238 5 8.33333V11.6667" stroke="#FDFDFF" stroke-width="1.875" stroke-linecap="round" stroke-linejoin="round"/>
<path d="M28.3334 5H31.6667C33.5077 5 35 6.49238 35 8.33333V11.6667" stroke="#FDFDFF" stroke-width="1.875" stroke-linecap="round" stroke-linejoin="round"/>
<path d="M26.6666 13.3335V16.6668" stroke="#FDFDFF" stroke-width="1.875" stroke-linecap="round" stroke-linejoin="round"/>
<path d="M13.3334 13.3335V16.6668" stroke="#FDFDFF" stroke-width="1.875" stroke-linecap="round" stroke-linejoin="round"/>
<path d="M15 26.6665C15 26.6665 16.6667 28.3332 20 28.3332C23.3333 28.3332 25 26.6665 25 26.6665" stroke="#FDFDFF" stroke-width="1.875" stroke-linecap="round" stroke-linejoin="round"/>
<path d="M20 13.3335V21.6668H18.3334" stroke="#FDFDFF" stroke-width="1.875" stroke-linecap="round" stroke-linejoin="round"/>
<path d="M11.6667 35.0002H8.33333C6.49238 35.0002 5 33.5078 5 31.6668V28.3335" stroke="#FDFDFF" stroke-width="1.875" stroke-linecap="round" stroke-linejoin="round"/>
<path d="M28.3334 35.0002H31.6667C33.5077 35.0002 35 33.5078 35 31.6668V28.3335" stroke="#FDFDFF" stroke-width="1.875" stroke-linecap="round" stroke-linejoin="round"/>
</svg>
