<svg width="25" height="25" viewBox="0 0 25 25" fill="none" xmlns="http://www.w3.org/2000/svg">
<path d="M14.5833 2.34375C14.7271 2.34375 14.8437 2.46034 14.8437 2.60417V8.48652C14.8437 8.91799 15.1934 9.26777 15.6249 9.26777H20.3124C20.4562 9.26777 20.5728 9.38436 20.5728 9.52819V19.7917C20.5728 21.3737 19.2903 22.6562 17.7083 22.6562H7.29158C5.70952 22.6562 4.427 21.3737 4.427 19.7917V5.20833C4.427 3.62627 5.70952 2.34375 7.29159 2.34375H14.5833Z" fill="#FDFDFF"/>
<path d="M16.7564 2.74832C16.6068 2.6276 16.4062 2.74962 16.4062 2.94181V7.44485C16.4062 7.58868 16.5228 7.70527 16.6666 7.70527H20.1024C20.2249 7.70527 20.3023 7.57606 20.2308 7.47651L17.0921 3.1037C16.9955 2.96912 16.8823 2.85 16.7564 2.74832Z" fill="#FDFDFF"/>
</svg>
