<svg width="20" height="20" viewBox="0 0 20 20" fill="none" xmlns="http://www.w3.org/2000/svg">
<g clip-path="url(#clip0_256_1507)">
<path d="M5.27273 3.909L3.63636 2.27264L2.27273 3.63627L3.90909 5.27264L5.27273 3.909ZM2.72727 9.09082H0V10.909H2.72727V9.09082ZM10.9091 0.0908203H9.09091V2.72718H10.9091V0.0908203ZM17.7273 3.63627L16.3636 2.27264L14.7273 3.909L16 5.18173L17.7273 3.63627ZM14.7273 16.0908L16.3636 17.7272L17.6364 16.4545L16 14.8181L14.7273 16.0908ZM17.2727 9.09082V10.909H20V9.09082H17.2727ZM10 4.54536C7 4.54536 4.54545 6.99991 4.54545 9.99991C4.54545 12.9999 7 15.4545 10 15.4545C13 15.4545 15.4545 12.9999 15.4545 9.99991C15.4545 6.99991 13 4.54536 10 4.54536ZM9.09091 19.909C9.36364 19.909 10.9091 19.909 10.9091 19.909V17.2726H9.09091V19.909ZM2.27273 16.3635L3.63636 17.7272L5.27273 16.0908L4 14.8181L2.27273 16.3635Z" fill="#FDFDFF"/>
</g>
<defs>
<clipPath id="clip0_256_1507">
<rect width="20" height="20" fill="white"/>
</clipPath>
</defs>
</svg>
