<svg width="26" height="26" viewBox="0 0 26 26" fill="none" xmlns="http://www.w3.org/2000/svg">
<path d="M3.25 8.66675C3.25 7.49943 3.25 6.91577 3.48616 6.47395C3.67262 6.1251 3.95835 5.83937 4.30721 5.65291C4.74903 5.41675 5.33268 5.41675 6.5 5.41675H9.17648C9.99398 5.41675 10.4027 5.41675 10.7703 5.56899C11.1378 5.72123 11.4268 6.01026 12.0049 6.58832L14.0833 8.66675H3.25Z" fill="#FDFDFF"/>
<path fill-rule="evenodd" clip-rule="evenodd" d="M19.55 8.66675H3.25V18.4667C3.25 19.5869 3.25 20.1469 3.46799 20.5747C3.65973 20.9511 3.96569 21.257 4.34202 21.4488C4.76984 21.6667 5.3299 21.6667 6.45 21.6667H19.55C20.6701 21.6667 21.2302 21.6667 21.658 21.4488C22.0343 21.257 22.3403 20.9511 22.532 20.5747C22.75 20.1469 22.75 19.5869 22.75 18.4667V11.8667C22.75 10.7466 22.75 10.1866 22.532 9.75877C22.3403 9.38244 22.0343 9.07648 21.658 8.88474C21.2302 8.66675 20.6701 8.66675 19.55 8.66675ZM12 18.4167V16.1667H9.75V14.1667H12V11.9167H14V14.1667H16.25V16.1667H14V18.4167H12Z" fill="#FDFDFF"/>
</svg>
