<svg width="25" height="24" viewBox="0 0 25 24" fill="none" xmlns="http://www.w3.org/2000/svg">
<path d="M9.5679 3.22806C8.20441 3.07567 6.79536 3.07567 5.43187 3.22806C4.55469 3.3261 3.84539 4.01685 3.74195 4.90129C3.57886 6.29571 3.57886 7.70438 3.74195 9.0988C3.84539 9.98323 4.55469 10.674 5.43187 10.772C6.79537 10.9244 8.20441 10.9244 9.5679 10.772C10.4451 10.674 11.1544 9.98323 11.2578 9.0988C11.4209 7.70438 11.4209 6.29571 11.2578 4.90129C11.1544 4.01685 10.4451 3.3261 9.5679 3.22806Z" fill="#FDFDFF"/>
<path d="M9.5679 13.2281C8.20441 13.0757 6.79536 13.0757 5.43187 13.2281C4.55469 13.3261 3.84539 14.0169 3.74195 14.9013C3.57886 16.2957 3.57886 17.7044 3.74195 19.0988C3.84539 19.9832 4.55469 20.674 5.43187 20.772C6.79537 20.9244 8.20441 20.9244 9.5679 20.772C10.4451 20.674 11.1544 19.9832 11.2578 19.0988C11.4209 17.7044 11.4209 16.2957 11.2578 14.9013C11.1544 14.0169 10.4451 13.3261 9.5679 13.2281Z" fill="#FDFDFF"/>
<path d="M19.5679 3.22806C18.2044 3.07567 16.7954 3.07567 15.4319 3.22806C14.5547 3.3261 13.8454 4.01685 13.742 4.90129C13.5789 6.29571 13.5789 7.70438 13.742 9.0988C13.8454 9.98323 14.5547 10.674 15.4319 10.772C16.7954 10.9244 18.2044 10.9244 19.5679 10.772C20.4451 10.674 21.1544 9.98323 21.2578 9.0988C21.4209 7.70438 21.4209 6.29571 21.2578 4.90129C21.1544 4.01685 20.4451 3.3261 19.5679 3.22806Z" fill="#FDFDFF"/>
<path d="M19.5679 13.2281C18.2044 13.0757 16.7954 13.0757 15.4319 13.2281C14.5547 13.3261 13.8454 14.0169 13.742 14.9013C13.5789 16.2957 13.5789 17.7044 13.742 19.0988C13.8454 19.9832 14.5547 20.674 15.4319 20.772C16.7954 20.9244 18.2044 20.9244 19.5679 20.772C20.4451 20.674 21.1544 19.9832 21.2578 19.0988C21.4209 17.7044 21.4209 16.2957 21.2578 14.9013C21.1544 14.0169 20.4451 13.3261 19.5679 13.2281Z" fill="#FDFDFF"/>
</svg>
