<svg width="20" height="20" viewBox="0 0 20 20" fill="none" xmlns="http://www.w3.org/2000/svg">
<g clip-path="url(#clip0_256_612)">
<path d="M1.97803 4.3409C2.74726 3.57167 3.51649 2.80243 3.84616 3.02222C4.39561 3.242 3.84616 4.12112 3.51649 4.67057C3.18682 5.11013 0.329671 8.95629 0.329671 11.5937C0.329671 13.0222 0.879123 14.1211 1.75825 14.8904C2.63737 15.5497 3.62638 15.6596 4.61539 15.4398C5.82419 15.1102 6.70331 13.9014 8.022 12.3629C9.34068 10.7145 11.099 8.62662 12.5275 8.62662C14.2857 8.62662 14.2857 9.72553 14.5055 10.6046C10.3296 11.264 8.5714 14.6706 8.5714 16.5387C8.5714 18.4068 10.1099 19.9453 12.0879 19.9453C13.8462 19.9453 16.8132 18.5168 17.2527 13.242H20V10.4948H17.2527C17.033 8.73651 16.044 5.87936 12.8571 5.87936C10.4395 5.87936 8.24173 7.96728 7.4725 8.95629C6.81316 9.72553 5.1648 11.7036 4.94502 11.9234C4.61535 12.253 4.17579 12.8025 3.73623 12.8025C3.29667 12.8025 2.967 11.9234 3.29667 10.7145C3.73623 9.50575 4.83513 7.52772 5.38458 6.86838C6.15382 5.54969 6.70327 4.67057 6.70327 3.242C6.70327 0.824408 4.94502 0.0551758 3.95601 0.0551758C2.52744 0.0551758 1.31864 1.15408 0.98897 1.48375C0.659299 1.81342 0.329671 2.14309 0 2.47276L1.97803 4.3409ZM12.1979 17.1981C11.8682 17.1981 11.4286 16.8684 11.4286 16.4288C11.4286 15.7695 12.1979 14.0112 14.6154 13.3519C14.1758 16.3189 12.9671 17.1981 12.1979 17.1981Z" fill="#FDFDFF"/>
</g>
<defs>
<clipPath id="clip0_256_612">
<rect width="20" height="20" fill="white"/>
</clipPath>
</defs>
</svg>
