<svg width="17" height="19" viewBox="0 0 17 19" fill="none" xmlns="http://www.w3.org/2000/svg">
<path d="M3.04567 5.16265C2.83045 5.10587 2.65157 4.95643 2.55741 4.75474C2.46325 4.55305 2.46354 4.31996 2.5582 4.11851L4.21895 0.584121C4.34271 0.320735 4.60766 0.152717 4.89867 0.153077C5.18969 0.153437 5.45422 0.32211 5.57733 0.585801L6.30996 2.15504C6.33615 2.14474 6.3632 2.13581 6.39103 2.12836C10.7384 0.963489 15.2069 3.5434 16.3718 7.89075C17.5366 12.2381 14.9567 16.7066 10.6094 17.8715C6.26204 19.0364 1.7935 16.4565 0.628636 12.1091C0.258214 10.7267 0.266547 9.32978 0.59098 8.03105C0.691369 7.62919 1.09853 7.38479 1.50039 7.48518C1.90225 7.58557 2.14665 7.99273 2.04626 8.39459C1.78197 9.45258 1.77468 10.5907 2.07753 11.7209C3.02798 15.268 6.67401 17.3731 10.2212 16.4226C13.7683 15.4722 15.8733 11.8261 14.9229 8.27898C13.988 4.78982 10.4449 2.69601 6.95332 3.53307L7.69251 5.11637C7.81562 5.38006 7.77507 5.69116 7.58849 5.91449C7.40192 6.13783 7.10299 6.23307 6.8216 6.15883L3.04567 5.16265Z" fill="#FDFDFF"/>
</svg>
