<svg width="50" height="50" viewBox="0 0 50 50" fill="none" xmlns="http://www.w3.org/2000/svg">
<path d="M41.6667 31.25V33.3333C41.6667 37.2276 41.6667 39.1747 40.8293 40.625C40.2808 41.5751 39.4918 42.3641 38.5417 42.9127C37.0913 43.75 35.1442 43.75 31.25 43.75" stroke="white" stroke-opacity="0.3" stroke-width="2" stroke-linejoin="round"/>
<path d="M41.6667 18.5V16.4167C41.6667 12.5224 41.6667 10.5753 40.8293 9.125C40.2808 8.17488 39.4918 7.38589 38.5417 6.83734C37.0913 6 35.1442 6 31.25 6" stroke="white" stroke-opacity="0.3" stroke-width="2" stroke-linejoin="round"/>
<path d="M8.3335 31.25V33.3333C8.3335 37.2276 8.3335 39.1747 9.17084 40.625C9.71939 41.5751 10.5084 42.3641 11.4585 42.9127C12.9088 43.75 14.8559 43.75 18.7502 43.75" stroke="white" stroke-opacity="0.3" stroke-width="2" stroke-linejoin="round"/>
<path d="M8.3335 18.5V16.4167C8.3335 12.5224 8.3335 10.5753 9.17084 9.125C9.71939 8.17488 10.5084 7.38589 11.4585 6.83734C12.9088 6 14.8559 6 18.7502 6" stroke="white" stroke-opacity="0.3" stroke-width="2" stroke-linejoin="round"/>
<path d="M26.1716 16H22C20.1144 16 19.1716 16 18.5858 16.5858C18 17.1716 18 18.1144 18 20V30C18 31.8856 18 32.8284 18.5858 33.4142C19.1716 34 20.1144 34 22 34H28C29.8856 34 30.8284 34 31.4142 33.4142C32 32.8284 32 31.8856 32 30V21.8284C32 21.4197 32 21.2153 31.9239 21.0315C31.8478 20.8478 31.7032 20.7032 31.4142 20.4142L27.5858 16.5858C27.2968 16.2968 27.1522 16.1522 26.9685 16.0761C26.7847 16 26.5803 16 26.1716 16Z" stroke="#FDFDFF" stroke-width="2"/>
<path d="M22 26L28 26" stroke="#FDFDFF" stroke-width="2" stroke-linecap="round"/>
<path d="M22 30L26 30" stroke="#FDFDFF" stroke-width="2" stroke-linecap="round"/>
<path d="M26 16V20C26 20.9428 26 21.4142 26.2929 21.7071C26.5858 22 27.0572 22 28 22H32" stroke="#FDFDFF" stroke-width="2"/>
</svg>
