<svg width="25" height="25" viewBox="0 0 25 25" fill="none" xmlns="http://www.w3.org/2000/svg">
<path d="M12.5001 9.1147C10.6303 9.1147 9.11464 10.6304 9.11464 12.5001C9.11464 14.3698 10.6303 15.8855 12.5001 15.8855C14.3698 15.8855 15.8855 14.3698 15.8855 12.5001C15.8855 10.6304 14.3698 9.1147 12.5001 9.1147Z" fill="#FDFDFF"/>
<path fill-rule="evenodd" clip-rule="evenodd" d="M13.2083 2.92278C12.7679 2.67808 12.2323 2.67808 11.7919 2.92278L4.29185 7.08945C3.82888 7.34665 3.54175 7.83464 3.54175 8.36426V16.636C3.54175 17.1656 3.82888 17.6536 4.29185 17.9108L11.7919 22.0775C12.2323 22.3222 12.7679 22.3222 13.2083 22.0775L20.7083 17.9108C21.1713 17.6536 21.4584 17.1656 21.4584 16.636V8.36426C21.4584 7.83464 21.1713 7.34665 20.7083 7.08945L13.2083 2.92278ZM7.55214 12.5001C7.55214 9.76746 9.7674 7.5522 12.5001 7.5522C15.2327 7.5522 17.448 9.76746 17.448 12.5001C17.448 15.2328 15.2327 17.448 12.5001 17.448C9.7674 17.448 7.55214 15.2328 7.55214 12.5001Z" fill="#FDFDFF"/>
</svg>
