<svg width="15" height="17" viewBox="0 0 15 17" fill="none" xmlns="http://www.w3.org/2000/svg">
<path d="M5 2.25L4.29289 1.54289L5 0.835786L5.70711 1.54289L5 2.25ZM6 11.625C6 12.1773 5.55228 12.625 5 12.625C4.44772 12.625 4 12.1773 4 11.625L6 11.625ZM1.16789 4.66789L4.29289 1.54289L5.70711 2.95711L2.58211 6.08211L1.16789 4.66789ZM5.70711 1.54289L8.83211 4.66789L7.41789 6.08211L4.29289 2.95711L5.70711 1.54289ZM6 2.25L6 11.625L4 11.625L4 2.25L6 2.25Z" fill="#FDFDFF"/>
<path d="M10 14.75L9.29289 15.4571L10 16.1642L10.7071 15.4571L10 14.75ZM11 5.375C11 4.82271 10.5523 4.375 10 4.375C9.44772 4.375 9 4.82271 9 5.375L11 5.375ZM6.16789 12.3321L9.29289 15.4571L10.7071 14.0429L7.58211 10.9179L6.16789 12.3321ZM10.7071 15.4571L13.8321 12.3321L12.4179 10.9179L9.29289 14.0429L10.7071 15.4571ZM11 14.75L11 5.375L9 5.375L9 14.75L11 14.75Z" fill="#FDFDFF"/>
</svg>
